# xmcd CD database file
#
# Track frame offsets:
#	165
#	22252
#	43730
#	68677
#	93117
#	118330
#	144185
#	164737
#
# Disc length: 2423 seconds
#
# Revision: 0
# Processed by: cddbd v1.5.2PL0 Copyright (c) Steve Scherf et al.
# Submitted via: CDex 1.70beta2
#
DISCID=6e097508
DTITLE=ROBERTO LUGO - EL Galan de la Salsa (HECHO A LA MEDIDA)
DYEAR=1989
DGENRE=Salsa
TTITLE0=CORAZON EN BLANCO
TTITLE1=ENTREGATE
TTITLE2=SI YO TE AMARA
TTITLE3=QUIEN
TTITLE4=JUGANDO CON MI VIDA
TTITLE5=POR SER TAN NINA
TTITLE6=BALADA PARA UNA MUJER ENAMORADA
TTITLE7=FEELING
EXTD=YEAR: 1989
EXTT0=
EXTT1=
EXTT2=
EXTT3=
EXTT4=
EXTT5=
EXTT6=
EXTT7=
PLAYORDER=
